<mxfile host="app.diagrams.net" agent="Mozilla/5.0 (Windows NT 10.0; Win64; x64) AppleWebKit/537.36 (KHTML, like Gecko) Chrome/139.0.0.0 Safari/537.36 Avast/139.0.0.0" version="28.1.1">
  <diagram name="PÃ¡gina-1" id="TMfoq_PzSvc9NemojxV_">
    <mxGraphModel dx="856" dy="1683" grid="1" gridSize="10" guides="1" tooltips="1" connect="1" arrows="1" fold="1" page="1" pageScale="1" pageWidth="827" pageHeight="1169" math="0" shadow="0">
      <root>
        <mxCell id="0" />
        <mxCell id="1" parent="0" />
        <mxCell id="vCl89EuKgAIW0rMiHvJC-1" value="Usuario" style="shape=umlActor;verticalLabelPosition=bottom;verticalAlign=top;html=1;outlineConnect=0;" parent="1" vertex="1">
          <mxGeometry x="140" y="170" width="30" height="60" as="geometry" />
        </mxCell>
        <mxCell id="vCl89EuKgAIW0rMiHvJC-2" value="Registrar producto" style="ellipse;whiteSpace=wrap;html=1;" parent="1" vertex="1">
          <mxGeometry x="314" y="30" width="100" height="50" as="geometry" />
        </mxCell>
        <mxCell id="vCl89EuKgAIW0rMiHvJC-3" value="Actualizar stock" style="ellipse;whiteSpace=wrap;html=1;" parent="1" vertex="1">
          <mxGeometry x="660" y="80" width="115" height="50" as="geometry" />
        </mxCell>
        <mxCell id="vCl89EuKgAIW0rMiHvJC-4" value="Consultar inventario" style="ellipse;whiteSpace=wrap;html=1;" parent="1" vertex="1">
          <mxGeometry x="410" y="140" width="120" height="50" as="geometry" />
        </mxCell>
        <mxCell id="vCl89EuKgAIW0rMiHvJC-5" value="Generar reportes" style="ellipse;whiteSpace=wrap;html=1;" parent="1" vertex="1">
          <mxGeometry x="300" y="210" width="110" height="50" as="geometry" />
        </mxCell>
        <mxCell id="vCl89EuKgAIW0rMiHvJC-6" value="" style="endArrow=none;html=1;rounded=0;exitX=1;exitY=0.3333333333333333;exitDx=0;exitDy=0;exitPerimeter=0;entryX=0.062;entryY=0.776;entryDx=0;entryDy=0;entryPerimeter=0;" parent="1" source="vCl89EuKgAIW0rMiHvJC-1" target="vCl89EuKgAIW0rMiHvJC-2" edge="1">
          <mxGeometry width="50" height="50" relative="1" as="geometry">
            <mxPoint x="290" y="250" as="sourcePoint" />
            <mxPoint x="340" y="200" as="targetPoint" />
          </mxGeometry>
        </mxCell>
        <mxCell id="vCl89EuKgAIW0rMiHvJC-9" value="" style="endArrow=none;html=1;rounded=0;exitX=1;exitY=0.3333333333333333;exitDx=0;exitDy=0;exitPerimeter=0;entryX=0;entryY=0;entryDx=0;entryDy=0;" parent="1" source="vCl89EuKgAIW0rMiHvJC-1" target="vCl89EuKgAIW0rMiHvJC-5" edge="1">
          <mxGeometry width="50" height="50" relative="1" as="geometry">
            <mxPoint x="290" y="250" as="sourcePoint" />
            <mxPoint x="340" y="200" as="targetPoint" />
          </mxGeometry>
        </mxCell>
        <mxCell id="wqrLdyUfxb5ITpX8sOSo-1" value="Operario" style="shape=umlActor;verticalLabelPosition=bottom;verticalAlign=top;html=1;outlineConnect=0;" parent="1" vertex="1">
          <mxGeometry x="710" y="340" width="30" height="60" as="geometry" />
        </mxCell>
        <mxCell id="wqrLdyUfxb5ITpX8sOSo-2" value="Registrar salida" style="ellipse;whiteSpace=wrap;html=1;" parent="1" vertex="1">
          <mxGeometry x="910" y="130" width="120" height="80" as="geometry" />
        </mxCell>
        <mxCell id="wqrLdyUfxb5ITpX8sOSo-3" value="Alertar bajo stock" style="ellipse;whiteSpace=wrap;html=1;" parent="1" vertex="1">
          <mxGeometry x="505" y="310" width="120" height="80" as="geometry" />
        </mxCell>
        <mxCell id="3s4oe4CgQZ3yxv4rQEkZ-1" value="Registrar entrada" style="ellipse;whiteSpace=wrap;html=1;" parent="1" vertex="1">
          <mxGeometry x="860" y="-20" width="120" height="80" as="geometry" />
        </mxCell>
        <mxCell id="3s4oe4CgQZ3yxv4rQEkZ-4" value="" style="endArrow=none;html=1;rounded=0;exitX=0.958;exitY=0.688;exitDx=0;exitDy=0;entryX=0;entryY=0.5;entryDx=0;entryDy=0;exitPerimeter=0;" parent="1" source="vCl89EuKgAIW0rMiHvJC-5" target="wqrLdyUfxb5ITpX8sOSo-3" edge="1">
          <mxGeometry width="50" height="50" relative="1" as="geometry">
            <mxPoint x="455" y="230" as="sourcePoint" />
            <mxPoint x="505" y="180" as="targetPoint" />
          </mxGeometry>
        </mxCell>
        <mxCell id="3s4oe4CgQZ3yxv4rQEkZ-5" value="Inicia sesion" style="ellipse;whiteSpace=wrap;html=1;" parent="1" vertex="1">
          <mxGeometry x="304" y="-80" width="120" height="80" as="geometry" />
        </mxCell>
        <mxCell id="3s4oe4CgQZ3yxv4rQEkZ-6" value="" style="endArrow=none;html=1;rounded=0;entryX=0;entryY=1;entryDx=0;entryDy=0;exitX=1;exitY=0.3333333333333333;exitDx=0;exitDy=0;exitPerimeter=0;" parent="1" source="vCl89EuKgAIW0rMiHvJC-1" target="3s4oe4CgQZ3yxv4rQEkZ-5" edge="1">
          <mxGeometry width="50" height="50" relative="1" as="geometry">
            <mxPoint x="390" y="150" as="sourcePoint" />
            <mxPoint x="440" y="100" as="targetPoint" />
          </mxGeometry>
        </mxCell>
        <mxCell id="3s4oe4CgQZ3yxv4rQEkZ-8" value="Extends" style="endArrow=block;endSize=16;endFill=0;html=1;rounded=0;entryX=1;entryY=0.5;entryDx=0;entryDy=0;exitX=0;exitY=0.5;exitDx=0;exitDy=0;" parent="1" source="wqrLdyUfxb5ITpX8sOSo-2" target="vCl89EuKgAIW0rMiHvJC-3" edge="1">
          <mxGeometry width="160" relative="1" as="geometry">
            <mxPoint x="430" y="240" as="sourcePoint" />
            <mxPoint x="590" y="240" as="targetPoint" />
          </mxGeometry>
        </mxCell>
        <mxCell id="3s4oe4CgQZ3yxv4rQEkZ-9" value="Extends" style="endArrow=block;endSize=16;endFill=0;html=1;rounded=0;entryX=0.957;entryY=0.3;entryDx=0;entryDy=0;exitX=0.04;exitY=0.794;exitDx=0;exitDy=0;entryPerimeter=0;exitPerimeter=0;" parent="1" source="3s4oe4CgQZ3yxv4rQEkZ-1" target="vCl89EuKgAIW0rMiHvJC-3" edge="1">
          <mxGeometry width="160" relative="1" as="geometry">
            <mxPoint x="674" y="80" as="sourcePoint" />
            <mxPoint x="584" y="75" as="targetPoint" />
          </mxGeometry>
        </mxCell>
        <mxCell id="3s4oe4CgQZ3yxv4rQEkZ-11" value="" style="endArrow=none;html=1;rounded=0;exitX=0.5;exitY=0;exitDx=0;exitDy=0;exitPerimeter=0;entryX=1;entryY=0.5;entryDx=0;entryDy=0;" parent="1" source="wqrLdyUfxb5ITpX8sOSo-1" target="3s4oe4CgQZ3yxv4rQEkZ-5" edge="1">
          <mxGeometry width="50" height="50" relative="1" as="geometry">
            <mxPoint x="480" y="230" as="sourcePoint" />
            <mxPoint x="530" y="180" as="targetPoint" />
          </mxGeometry>
        </mxCell>
        <mxCell id="3s4oe4CgQZ3yxv4rQEkZ-12" value="" style="endArrow=none;html=1;rounded=0;exitX=0;exitY=0.3333333333333333;exitDx=0;exitDy=0;exitPerimeter=0;" parent="1" source="wqrLdyUfxb5ITpX8sOSo-1" edge="1">
          <mxGeometry width="50" height="50" relative="1" as="geometry">
            <mxPoint x="480" y="230" as="sourcePoint" />
            <mxPoint x="530" y="180" as="targetPoint" />
          </mxGeometry>
        </mxCell>
        <mxCell id="3s4oe4CgQZ3yxv4rQEkZ-14" value="1.Gestion de inventario" style="text;html=1;align=center;verticalAlign=middle;whiteSpace=wrap;rounded=0;" parent="1" vertex="1">
          <mxGeometry x="90" y="-120" width="170" height="30" as="geometry" />
        </mxCell>
        <mxCell id="3s4oe4CgQZ3yxv4rQEkZ-16" value="Cliente" style="shape=umlActor;verticalLabelPosition=bottom;verticalAlign=top;html=1;outlineConnect=0;" parent="1" vertex="1">
          <mxGeometry x="322.5" y="1430" width="30" height="60" as="geometry" />
        </mxCell>
        <mxCell id="3s4oe4CgQZ3yxv4rQEkZ-17" value="Sistema" style="shape=umlActor;verticalLabelPosition=bottom;verticalAlign=top;html=1;outlineConnect=0;" parent="1" vertex="1">
          <mxGeometry x="717.5" y="1630" width="30" height="60" as="geometry" />
        </mxCell>
        <mxCell id="3s4oe4CgQZ3yxv4rQEkZ-18" value="Iniciar pago" style="ellipse;whiteSpace=wrap;html=1;" parent="1" vertex="1">
          <mxGeometry x="417.5" y="1320" width="120" height="80" as="geometry" />
        </mxCell>
        <mxCell id="3s4oe4CgQZ3yxv4rQEkZ-19" value="Validar pago" style="ellipse;whiteSpace=wrap;html=1;" parent="1" vertex="1">
          <mxGeometry x="422.5" y="1560" width="120" height="80" as="geometry" />
        </mxCell>
        <mxCell id="3s4oe4CgQZ3yxv4rQEkZ-20" value="Generar comprobante" style="ellipse;whiteSpace=wrap;html=1;" parent="1" vertex="1">
          <mxGeometry x="252.5" y="1680" width="120" height="80" as="geometry" />
        </mxCell>
        <mxCell id="3s4oe4CgQZ3yxv4rQEkZ-21" value="Procesar pago" style="ellipse;whiteSpace=wrap;html=1;" parent="1" vertex="1">
          <mxGeometry x="422.5" y="1760" width="120" height="80" as="geometry" />
        </mxCell>
        <mxCell id="3s4oe4CgQZ3yxv4rQEkZ-22" value="" style="endArrow=none;html=1;rounded=0;exitX=1;exitY=0.3333333333333333;exitDx=0;exitDy=0;exitPerimeter=0;entryX=0;entryY=1;entryDx=0;entryDy=0;" parent="1" source="3s4oe4CgQZ3yxv4rQEkZ-16" target="3s4oe4CgQZ3yxv4rQEkZ-18" edge="1">
          <mxGeometry width="50" height="50" relative="1" as="geometry">
            <mxPoint x="432.5" y="1450" as="sourcePoint" />
            <mxPoint x="482.5" y="1400" as="targetPoint" />
          </mxGeometry>
        </mxCell>
        <mxCell id="3s4oe4CgQZ3yxv4rQEkZ-23" value="Consutar transaccion" style="ellipse;whiteSpace=wrap;html=1;" parent="1" vertex="1">
          <mxGeometry x="422.5" y="1450" width="120" height="80" as="geometry" />
        </mxCell>
        <mxCell id="3s4oe4CgQZ3yxv4rQEkZ-24" value="" style="endArrow=none;html=1;rounded=0;entryX=0.012;entryY=0.391;entryDx=0;entryDy=0;entryPerimeter=0;" parent="1" target="3s4oe4CgQZ3yxv4rQEkZ-23" edge="1">
          <mxGeometry width="50" height="50" relative="1" as="geometry">
            <mxPoint x="352.5" y="1450" as="sourcePoint" />
            <mxPoint x="412.5" y="1500" as="targetPoint" />
          </mxGeometry>
        </mxCell>
        <mxCell id="3s4oe4CgQZ3yxv4rQEkZ-27" value="" style="endArrow=none;html=1;rounded=0;exitX=1;exitY=0.5;exitDx=0;exitDy=0;entryX=0;entryY=0.3333333333333333;entryDx=0;entryDy=0;entryPerimeter=0;" parent="1" source="3s4oe4CgQZ3yxv4rQEkZ-21" target="3s4oe4CgQZ3yxv4rQEkZ-17" edge="1">
          <mxGeometry width="50" height="50" relative="1" as="geometry">
            <mxPoint x="432.5" y="1640" as="sourcePoint" />
            <mxPoint x="482.5" y="1590" as="targetPoint" />
          </mxGeometry>
        </mxCell>
        <mxCell id="3s4oe4CgQZ3yxv4rQEkZ-28" value="Extends" style="endArrow=block;endSize=16;endFill=0;html=1;rounded=0;exitX=1;exitY=0.5;exitDx=0;exitDy=0;entryX=0;entryY=0.375;entryDx=0;entryDy=0;entryPerimeter=0;" parent="1" source="3s4oe4CgQZ3yxv4rQEkZ-20" target="3s4oe4CgQZ3yxv4rQEkZ-21" edge="1">
          <mxGeometry width="160" relative="1" as="geometry">
            <mxPoint x="372.5" y="1710" as="sourcePoint" />
            <mxPoint x="532.5" y="1710" as="targetPoint" />
          </mxGeometry>
        </mxCell>
        <mxCell id="3s4oe4CgQZ3yxv4rQEkZ-29" value="Extends" style="endArrow=block;endSize=16;endFill=0;html=1;rounded=0;exitX=0.431;exitY=1.026;exitDx=0;exitDy=0;exitPerimeter=0;entryX=0.5;entryY=0;entryDx=0;entryDy=0;" parent="1" source="3s4oe4CgQZ3yxv4rQEkZ-19" target="3s4oe4CgQZ3yxv4rQEkZ-21" edge="1">
          <mxGeometry width="160" relative="1" as="geometry">
            <mxPoint x="372.5" y="1710" as="sourcePoint" />
            <mxPoint x="532.5" y="1710" as="targetPoint" />
          </mxGeometry>
        </mxCell>
        <mxCell id="3s4oe4CgQZ3yxv4rQEkZ-30" value="" style="endArrow=none;html=1;rounded=0;entryX=0.746;entryY=0.105;entryDx=0;entryDy=0;entryPerimeter=0;" parent="1" target="3s4oe4CgQZ3yxv4rQEkZ-20" edge="1">
          <mxGeometry width="50" height="50" relative="1" as="geometry">
            <mxPoint x="352.5" y="1450" as="sourcePoint" />
            <mxPoint x="482.5" y="1610" as="targetPoint" />
          </mxGeometry>
        </mxCell>
        <mxCell id="3s4oe4CgQZ3yxv4rQEkZ-31" value="Empleado" style="shape=umlActor;verticalLabelPosition=bottom;verticalAlign=top;html=1;outlineConnect=0;" parent="1" vertex="1">
          <mxGeometry x="195" y="730" width="30" height="60" as="geometry" />
        </mxCell>
        <mxCell id="3s4oe4CgQZ3yxv4rQEkZ-32" value="Registrar empleado&amp;nbsp;" style="ellipse;whiteSpace=wrap;html=1;" parent="1" vertex="1">
          <mxGeometry x="385" y="540" width="120" height="80" as="geometry" />
        </mxCell>
        <mxCell id="3s4oe4CgQZ3yxv4rQEkZ-33" value="Gestionar nomina" style="ellipse;whiteSpace=wrap;html=1;" parent="1" vertex="1">
          <mxGeometry x="385" y="630" width="120" height="80" as="geometry" />
        </mxCell>
        <mxCell id="3s4oe4CgQZ3yxv4rQEkZ-34" value="Solicitar vacaciones" style="ellipse;whiteSpace=wrap;html=1;" parent="1" vertex="1">
          <mxGeometry x="385" y="750" width="120" height="80" as="geometry" />
        </mxCell>
        <mxCell id="3s4oe4CgQZ3yxv4rQEkZ-35" value="Aprobar vacaciones" style="ellipse;whiteSpace=wrap;html=1;" parent="1" vertex="1">
          <mxGeometry x="439" y="840" width="120" height="80" as="geometry" />
        </mxCell>
        <mxCell id="3s4oe4CgQZ3yxv4rQEkZ-36" value="Gestionar beneficios" style="ellipse;whiteSpace=wrap;html=1;" parent="1" vertex="1">
          <mxGeometry x="385" y="960" width="120" height="80" as="geometry" />
        </mxCell>
        <mxCell id="3s4oe4CgQZ3yxv4rQEkZ-37" value="Generar certificados" style="ellipse;whiteSpace=wrap;html=1;" parent="1" vertex="1">
          <mxGeometry x="510" y="1010" width="120" height="80" as="geometry" />
        </mxCell>
        <mxCell id="3s4oe4CgQZ3yxv4rQEkZ-38" value="Evaluar desempeÃ±o" style="ellipse;whiteSpace=wrap;html=1;" parent="1" vertex="1">
          <mxGeometry x="655" y="1004" width="120" height="80" as="geometry" />
        </mxCell>
        <mxCell id="3s4oe4CgQZ3yxv4rQEkZ-39" value="RR.HH" style="shape=umlActor;verticalLabelPosition=bottom;verticalAlign=top;html=1;outlineConnect=0;" parent="1" vertex="1">
          <mxGeometry x="690" y="850" width="30" height="60" as="geometry" />
        </mxCell>
        <mxCell id="3s4oe4CgQZ3yxv4rQEkZ-40" value="" style="endArrow=none;html=1;rounded=0;exitX=1;exitY=0.3333333333333333;exitDx=0;exitDy=0;exitPerimeter=0;entryX=0.007;entryY=0.3;entryDx=0;entryDy=0;entryPerimeter=0;" parent="1" source="3s4oe4CgQZ3yxv4rQEkZ-31" target="3s4oe4CgQZ3yxv4rQEkZ-34" edge="1">
          <mxGeometry width="50" height="50" relative="1" as="geometry">
            <mxPoint x="385" y="830" as="sourcePoint" />
            <mxPoint x="435" y="780" as="targetPoint" />
          </mxGeometry>
        </mxCell>
        <mxCell id="3s4oe4CgQZ3yxv4rQEkZ-41" value="" style="endArrow=none;html=1;rounded=0;entryX=0;entryY=0.3333333333333333;entryDx=0;entryDy=0;entryPerimeter=0;exitX=1;exitY=0.5;exitDx=0;exitDy=0;" parent="1" source="3s4oe4CgQZ3yxv4rQEkZ-32" target="3s4oe4CgQZ3yxv4rQEkZ-39" edge="1">
          <mxGeometry width="50" height="50" relative="1" as="geometry">
            <mxPoint x="385" y="870" as="sourcePoint" />
            <mxPoint x="435" y="820" as="targetPoint" />
          </mxGeometry>
        </mxCell>
        <mxCell id="3s4oe4CgQZ3yxv4rQEkZ-43" value="" style="endArrow=none;html=1;rounded=0;entryX=0;entryY=0.3333333333333333;entryDx=0;entryDy=0;entryPerimeter=0;exitX=1;exitY=0.5;exitDx=0;exitDy=0;" parent="1" source="3s4oe4CgQZ3yxv4rQEkZ-35" target="3s4oe4CgQZ3yxv4rQEkZ-39" edge="1">
          <mxGeometry width="50" height="50" relative="1" as="geometry">
            <mxPoint x="385" y="910" as="sourcePoint" />
            <mxPoint x="435" y="860" as="targetPoint" />
          </mxGeometry>
        </mxCell>
        <mxCell id="3s4oe4CgQZ3yxv4rQEkZ-44" value="" style="endArrow=none;html=1;rounded=0;entryX=0;entryY=0.3333333333333333;entryDx=0;entryDy=0;entryPerimeter=0;exitX=1;exitY=0;exitDx=0;exitDy=0;" parent="1" source="3s4oe4CgQZ3yxv4rQEkZ-36" target="3s4oe4CgQZ3yxv4rQEkZ-39" edge="1">
          <mxGeometry width="50" height="50" relative="1" as="geometry">
            <mxPoint x="385" y="990" as="sourcePoint" />
            <mxPoint x="435" y="940" as="targetPoint" />
          </mxGeometry>
        </mxCell>
        <mxCell id="3s4oe4CgQZ3yxv4rQEkZ-45" value="" style="endArrow=none;html=1;rounded=0;entryX=0;entryY=0.3333333333333333;entryDx=0;entryDy=0;entryPerimeter=0;exitX=1;exitY=0;exitDx=0;exitDy=0;" parent="1" source="3s4oe4CgQZ3yxv4rQEkZ-37" target="3s4oe4CgQZ3yxv4rQEkZ-39" edge="1">
          <mxGeometry width="50" height="50" relative="1" as="geometry">
            <mxPoint x="385" y="1110" as="sourcePoint" />
            <mxPoint x="435" y="1060" as="targetPoint" />
          </mxGeometry>
        </mxCell>
        <mxCell id="3s4oe4CgQZ3yxv4rQEkZ-46" value="" style="endArrow=none;html=1;rounded=0;exitX=1;exitY=0;exitDx=0;exitDy=0;entryX=0;entryY=0.3333333333333333;entryDx=0;entryDy=0;entryPerimeter=0;" parent="1" source="3s4oe4CgQZ3yxv4rQEkZ-38" target="3s4oe4CgQZ3yxv4rQEkZ-39" edge="1">
          <mxGeometry width="50" height="50" relative="1" as="geometry">
            <mxPoint x="385" y="1240" as="sourcePoint" />
            <mxPoint x="435" y="1190" as="targetPoint" />
          </mxGeometry>
        </mxCell>
        <mxCell id="3s4oe4CgQZ3yxv4rQEkZ-47" value="3. Sistema de pago" style="text;html=1;align=center;verticalAlign=middle;whiteSpace=wrap;rounded=0;" parent="1" vertex="1">
          <mxGeometry x="140" y="1300" width="197.5" height="30" as="geometry" />
        </mxCell>
        <mxCell id="3s4oe4CgQZ3yxv4rQEkZ-49" value="2.Gestion de recursos humanos" style="text;html=1;align=center;verticalAlign=middle;whiteSpace=wrap;rounded=0;" parent="1" vertex="1">
          <mxGeometry x="86.5" y="510" width="233.5" height="30" as="geometry" />
        </mxCell>
        <mxCell id="3s4oe4CgQZ3yxv4rQEkZ-50" value="4. Registro de asistencia" style="text;html=1;align=center;verticalAlign=middle;whiteSpace=wrap;rounded=0;" parent="1" vertex="1">
          <mxGeometry x="140" y="1990" width="225" height="30" as="geometry" />
        </mxCell>
        <mxCell id="3s4oe4CgQZ3yxv4rQEkZ-52" value="Estudiante" style="shape=umlActor;verticalLabelPosition=bottom;verticalAlign=top;html=1;outlineConnect=0;" parent="1" vertex="1">
          <mxGeometry x="240" y="2220" width="30" height="60" as="geometry" />
        </mxCell>
        <mxCell id="3s4oe4CgQZ3yxv4rQEkZ-53" value="Supervisor" style="shape=umlActor;verticalLabelPosition=bottom;verticalAlign=top;html=1;outlineConnect=0;" parent="1" vertex="1">
          <mxGeometry x="700" y="2370" width="30" height="60" as="geometry" />
        </mxCell>
        <mxCell id="3s4oe4CgQZ3yxv4rQEkZ-54" value="Sistema" style="shape=umlActor;verticalLabelPosition=bottom;verticalAlign=top;html=1;outlineConnect=0;" parent="1" vertex="1">
          <mxGeometry x="687.5" y="2140" width="30" height="60" as="geometry" />
        </mxCell>
        <mxCell id="3s4oe4CgQZ3yxv4rQEkZ-55" value="Registrar entrada" style="ellipse;whiteSpace=wrap;html=1;" parent="1" vertex="1">
          <mxGeometry x="424" y="2180" width="120" height="80" as="geometry" />
        </mxCell>
        <mxCell id="3s4oe4CgQZ3yxv4rQEkZ-56" value="Registrar salida" style="ellipse;whiteSpace=wrap;html=1;" parent="1" vertex="1">
          <mxGeometry x="430" y="2050" width="120" height="80" as="geometry" />
        </mxCell>
        <mxCell id="3s4oe4CgQZ3yxv4rQEkZ-57" value="" style="endArrow=none;html=1;rounded=0;entryX=1;entryY=0.3333333333333333;entryDx=0;entryDy=0;entryPerimeter=0;" parent="1" source="3s4oe4CgQZ3yxv4rQEkZ-55" target="3s4oe4CgQZ3yxv4rQEkZ-52" edge="1">
          <mxGeometry width="50" height="50" relative="1" as="geometry">
            <mxPoint x="330" y="2350" as="sourcePoint" />
            <mxPoint x="380" y="2300" as="targetPoint" />
          </mxGeometry>
        </mxCell>
        <mxCell id="3s4oe4CgQZ3yxv4rQEkZ-58" value="" style="endArrow=none;html=1;rounded=0;entryX=0;entryY=1;entryDx=0;entryDy=0;" parent="1" target="3s4oe4CgQZ3yxv4rQEkZ-56" edge="1">
          <mxGeometry width="50" height="50" relative="1" as="geometry">
            <mxPoint x="270" y="2240" as="sourcePoint" />
            <mxPoint x="380" y="2300" as="targetPoint" />
          </mxGeometry>
        </mxCell>
        <mxCell id="3s4oe4CgQZ3yxv4rQEkZ-59" value="" style="endArrow=none;html=1;rounded=0;entryX=0;entryY=0.3333333333333333;entryDx=0;entryDy=0;entryPerimeter=0;exitX=1;exitY=0.5;exitDx=0;exitDy=0;" parent="1" source="3s4oe4CgQZ3yxv4rQEkZ-55" target="3s4oe4CgQZ3yxv4rQEkZ-54" edge="1">
          <mxGeometry width="50" height="50" relative="1" as="geometry">
            <mxPoint x="330" y="2350" as="sourcePoint" />
            <mxPoint x="380" y="2300" as="targetPoint" />
          </mxGeometry>
        </mxCell>
        <mxCell id="3s4oe4CgQZ3yxv4rQEkZ-60" value="" style="endArrow=none;html=1;rounded=0;entryX=0;entryY=0.3333333333333333;entryDx=0;entryDy=0;entryPerimeter=0;exitX=1;exitY=0.5;exitDx=0;exitDy=0;" parent="1" source="3s4oe4CgQZ3yxv4rQEkZ-56" target="3s4oe4CgQZ3yxv4rQEkZ-54" edge="1">
          <mxGeometry width="50" height="50" relative="1" as="geometry">
            <mxPoint x="330" y="2350" as="sourcePoint" />
            <mxPoint x="380" y="2300" as="targetPoint" />
          </mxGeometry>
        </mxCell>
        <mxCell id="3s4oe4CgQZ3yxv4rQEkZ-61" value="Generar reporte" style="ellipse;whiteSpace=wrap;html=1;" parent="1" vertex="1">
          <mxGeometry x="460" y="2520" width="120" height="80" as="geometry" />
        </mxCell>
        <mxCell id="3s4oe4CgQZ3yxv4rQEkZ-62" value="" style="endArrow=none;html=1;rounded=0;entryX=0;entryY=0.3333333333333333;entryDx=0;entryDy=0;entryPerimeter=0;exitX=1;exitY=0.5;exitDx=0;exitDy=0;" parent="1" source="3s4oe4CgQZ3yxv4rQEkZ-61" target="3s4oe4CgQZ3yxv4rQEkZ-53" edge="1">
          <mxGeometry width="50" height="50" relative="1" as="geometry">
            <mxPoint x="330" y="2350" as="sourcePoint" />
            <mxPoint x="380" y="2300" as="targetPoint" />
          </mxGeometry>
        </mxCell>
        <mxCell id="3s4oe4CgQZ3yxv4rQEkZ-63" value="Justificar ausencia" style="ellipse;whiteSpace=wrap;html=1;" parent="1" vertex="1">
          <mxGeometry x="450" y="2310" width="120" height="80" as="geometry" />
        </mxCell>
        <mxCell id="3s4oe4CgQZ3yxv4rQEkZ-64" value="" style="endArrow=none;html=1;rounded=0;entryX=1;entryY=0.3333333333333333;entryDx=0;entryDy=0;entryPerimeter=0;exitX=0;exitY=0;exitDx=0;exitDy=0;" parent="1" source="3s4oe4CgQZ3yxv4rQEkZ-63" target="3s4oe4CgQZ3yxv4rQEkZ-52" edge="1">
          <mxGeometry width="50" height="50" relative="1" as="geometry">
            <mxPoint x="330" y="2350" as="sourcePoint" />
            <mxPoint x="380" y="2300" as="targetPoint" />
          </mxGeometry>
        </mxCell>
        <mxCell id="3s4oe4CgQZ3yxv4rQEkZ-65" value="Aprobar/denegar" style="ellipse;whiteSpace=wrap;html=1;" parent="1" vertex="1">
          <mxGeometry x="320" y="2430" width="120" height="80" as="geometry" />
        </mxCell>
        <mxCell id="3s4oe4CgQZ3yxv4rQEkZ-66" value="" style="endArrow=none;html=1;rounded=0;exitX=1;exitY=0.5;exitDx=0;exitDy=0;" parent="1" source="3s4oe4CgQZ3yxv4rQEkZ-65" edge="1">
          <mxGeometry width="50" height="50" relative="1" as="geometry">
            <mxPoint x="330" y="2350" as="sourcePoint" />
            <mxPoint x="700" y="2390" as="targetPoint" />
          </mxGeometry>
        </mxCell>
        <mxCell id="3s4oe4CgQZ3yxv4rQEkZ-67" value="" style="endArrow=none;html=1;rounded=0;exitX=1;exitY=0;exitDx=0;exitDy=0;entryX=0;entryY=1;entryDx=0;entryDy=0;" parent="1" source="3s4oe4CgQZ3yxv4rQEkZ-65" target="3s4oe4CgQZ3yxv4rQEkZ-63" edge="1">
          <mxGeometry width="50" height="50" relative="1" as="geometry">
            <mxPoint x="330" y="2350" as="sourcePoint" />
            <mxPoint x="380" y="2300" as="targetPoint" />
          </mxGeometry>
        </mxCell>
        <mxCell id="3s4oe4CgQZ3yxv4rQEkZ-68" value="5. Aplicacion de transporte" style="text;html=1;align=center;verticalAlign=middle;whiteSpace=wrap;rounded=0;" parent="1" vertex="1">
          <mxGeometry x="170" y="2640" width="170" height="30" as="geometry" />
        </mxCell>
        <mxCell id="3s4oe4CgQZ3yxv4rQEkZ-69" value="Pasajero" style="shape=umlActor;verticalLabelPosition=bottom;verticalAlign=top;html=1;outlineConnect=0;" parent="1" vertex="1">
          <mxGeometry x="150" y="2880" width="30" height="60" as="geometry" />
        </mxCell>
        <mxCell id="3s4oe4CgQZ3yxv4rQEkZ-70" value="Conductor" style="shape=umlActor;verticalLabelPosition=bottom;verticalAlign=top;html=1;outlineConnect=0;" parent="1" vertex="1">
          <mxGeometry x="700" y="2990" width="30" height="60" as="geometry" />
        </mxCell>
        <mxCell id="3s4oe4CgQZ3yxv4rQEkZ-71" value="Sistema pago" style="shape=umlActor;verticalLabelPosition=bottom;verticalAlign=top;html=1;outlineConnect=0;" parent="1" vertex="1">
          <mxGeometry x="475" y="3150" width="30" height="60" as="geometry" />
        </mxCell>
        <mxCell id="3s4oe4CgQZ3yxv4rQEkZ-72" value="solicitar viaje" style="ellipse;whiteSpace=wrap;html=1;" parent="1" vertex="1">
          <mxGeometry x="310" y="2750" width="120" height="80" as="geometry" />
        </mxCell>
        <mxCell id="3s4oe4CgQZ3yxv4rQEkZ-74" value="pagar" style="ellipse;whiteSpace=wrap;html=1;" parent="1" vertex="1">
          <mxGeometry x="314" y="2850" width="120" height="80" as="geometry" />
        </mxCell>
        <mxCell id="3s4oe4CgQZ3yxv4rQEkZ-76" value="Asignar viaje" style="ellipse;whiteSpace=wrap;html=1;" parent="1" vertex="1">
          <mxGeometry x="550" y="2970" width="120" height="80" as="geometry" />
        </mxCell>
        <mxCell id="3s4oe4CgQZ3yxv4rQEkZ-77" value="" style="endArrow=none;html=1;rounded=0;exitX=1;exitY=0.3333333333333333;exitDx=0;exitDy=0;exitPerimeter=0;entryX=0;entryY=0.5;entryDx=0;entryDy=0;" parent="1" source="3s4oe4CgQZ3yxv4rQEkZ-69" target="3s4oe4CgQZ3yxv4rQEkZ-72" edge="1">
          <mxGeometry width="50" height="50" relative="1" as="geometry">
            <mxPoint x="210" y="3010" as="sourcePoint" />
            <mxPoint x="260" y="2960" as="targetPoint" />
          </mxGeometry>
        </mxCell>
        <mxCell id="3s4oe4CgQZ3yxv4rQEkZ-78" value="Validar pago" style="ellipse;whiteSpace=wrap;html=1;" parent="1" vertex="1">
          <mxGeometry x="285" y="3030" width="120" height="80" as="geometry" />
        </mxCell>
        <mxCell id="3s4oe4CgQZ3yxv4rQEkZ-79" value="" style="endArrow=none;html=1;rounded=0;entryX=0;entryY=0.3333333333333333;entryDx=0;entryDy=0;entryPerimeter=0;exitX=1;exitY=1;exitDx=0;exitDy=0;" parent="1" source="3s4oe4CgQZ3yxv4rQEkZ-78" target="3s4oe4CgQZ3yxv4rQEkZ-71" edge="1">
          <mxGeometry width="50" height="50" relative="1" as="geometry">
            <mxPoint x="55" y="3100" as="sourcePoint" />
            <mxPoint x="105" y="3050" as="targetPoint" />
          </mxGeometry>
        </mxCell>
        <mxCell id="3s4oe4CgQZ3yxv4rQEkZ-80" value="" style="endArrow=none;html=1;rounded=0;entryX=0;entryY=0.5;entryDx=0;entryDy=0;exitX=1;exitY=0.3333333333333333;exitDx=0;exitDy=0;exitPerimeter=0;" parent="1" source="3s4oe4CgQZ3yxv4rQEkZ-69" target="3s4oe4CgQZ3yxv4rQEkZ-74" edge="1">
          <mxGeometry width="50" height="50" relative="1" as="geometry">
            <mxPoint x="210" y="3040" as="sourcePoint" />
            <mxPoint x="260" y="2990" as="targetPoint" />
          </mxGeometry>
        </mxCell>
        <mxCell id="3s4oe4CgQZ3yxv4rQEkZ-81" value="" style="endArrow=none;html=1;rounded=0;entryX=1;entryY=1;entryDx=0;entryDy=0;exitX=0.5;exitY=0;exitDx=0;exitDy=0;" parent="1" source="3s4oe4CgQZ3yxv4rQEkZ-78" target="3s4oe4CgQZ3yxv4rQEkZ-74" edge="1">
          <mxGeometry width="50" height="50" relative="1" as="geometry">
            <mxPoint x="210" y="3040" as="sourcePoint" />
            <mxPoint x="260" y="2990" as="targetPoint" />
          </mxGeometry>
        </mxCell>
        <mxCell id="3s4oe4CgQZ3yxv4rQEkZ-82" value="" style="endArrow=none;html=1;rounded=0;exitX=1;exitY=1;exitDx=0;exitDy=0;entryX=1;entryY=0.3333333333333333;entryDx=0;entryDy=0;entryPerimeter=0;" parent="1" source="3s4oe4CgQZ3yxv4rQEkZ-76" target="3s4oe4CgQZ3yxv4rQEkZ-70" edge="1">
          <mxGeometry width="50" height="50" relative="1" as="geometry">
            <mxPoint x="532.5" y="2780" as="sourcePoint" />
            <mxPoint x="582.5" y="2730" as="targetPoint" />
          </mxGeometry>
        </mxCell>
        <mxCell id="3s4oe4CgQZ3yxv4rQEkZ-83" value="Recibir viaje" style="ellipse;whiteSpace=wrap;html=1;" parent="1" vertex="1">
          <mxGeometry x="475" y="2800" width="120" height="80" as="geometry" />
        </mxCell>
        <mxCell id="3s4oe4CgQZ3yxv4rQEkZ-84" value="" style="endArrow=none;html=1;rounded=0;exitX=1;exitY=1;exitDx=0;exitDy=0;entryX=0.5;entryY=0;entryDx=0;entryDy=0;" parent="1" source="3s4oe4CgQZ3yxv4rQEkZ-83" target="3s4oe4CgQZ3yxv4rQEkZ-76" edge="1">
          <mxGeometry width="50" height="50" relative="1" as="geometry">
            <mxPoint x="530" y="3040" as="sourcePoint" />
            <mxPoint x="580" y="2990" as="targetPoint" />
          </mxGeometry>
        </mxCell>
        <mxCell id="3s4oe4CgQZ3yxv4rQEkZ-86" value="6. Subasta" style="text;html=1;align=center;verticalAlign=middle;whiteSpace=wrap;rounded=0;" parent="1" vertex="1">
          <mxGeometry x="135" y="3300" width="60" height="30" as="geometry" />
        </mxCell>
        <mxCell id="3s4oe4CgQZ3yxv4rQEkZ-87" value="Vendedor" style="shape=umlActor;verticalLabelPosition=bottom;verticalAlign=top;html=1;outlineConnect=0;" parent="1" vertex="1">
          <mxGeometry x="170" y="3377" width="30" height="60" as="geometry" />
        </mxCell>
        <mxCell id="3s4oe4CgQZ3yxv4rQEkZ-88" value="comprador" style="shape=umlActor;verticalLabelPosition=bottom;verticalAlign=top;html=1;outlineConnect=0;" parent="1" vertex="1">
          <mxGeometry x="140" y="3630" width="30" height="60" as="geometry" />
        </mxCell>
        <mxCell id="3s4oe4CgQZ3yxv4rQEkZ-89" value="producto" style="ellipse;whiteSpace=wrap;html=1;" parent="1" vertex="1">
          <mxGeometry x="337" y="3350" width="120" height="80" as="geometry" />
        </mxCell>
        <mxCell id="3s4oe4CgQZ3yxv4rQEkZ-90" value="pagar" style="ellipse;whiteSpace=wrap;html=1;" parent="1" vertex="1">
          <mxGeometry x="362" y="3590" width="120" height="80" as="geometry" />
        </mxCell>
        <mxCell id="3s4oe4CgQZ3yxv4rQEkZ-91" value="sistema pago" style="shape=umlActor;verticalLabelPosition=bottom;verticalAlign=top;html=1;outlineConnect=0;" parent="1" vertex="1">
          <mxGeometry x="587" y="3620" width="30" height="60" as="geometry" />
        </mxCell>
        <mxCell id="3s4oe4CgQZ3yxv4rQEkZ-92" value="comprar producto" style="ellipse;whiteSpace=wrap;html=1;" parent="1" vertex="1">
          <mxGeometry x="197" y="3560" width="120" height="80" as="geometry" />
        </mxCell>
        <mxCell id="3s4oe4CgQZ3yxv4rQEkZ-93" value="" style="endArrow=none;html=1;rounded=0;exitX=1;exitY=0.3333333333333333;exitDx=0;exitDy=0;exitPerimeter=0;entryX=0;entryY=0.5;entryDx=0;entryDy=0;" parent="1" source="3s4oe4CgQZ3yxv4rQEkZ-87" target="3s4oe4CgQZ3yxv4rQEkZ-89" edge="1">
          <mxGeometry width="50" height="50" relative="1" as="geometry">
            <mxPoint x="342" y="3530" as="sourcePoint" />
            <mxPoint x="392" y="3480" as="targetPoint" />
          </mxGeometry>
        </mxCell>
        <mxCell id="3s4oe4CgQZ3yxv4rQEkZ-96" value="" style="endArrow=none;html=1;rounded=0;exitX=1;exitY=0.3333333333333333;exitDx=0;exitDy=0;exitPerimeter=0;entryX=0;entryY=1;entryDx=0;entryDy=0;" parent="1" source="3s4oe4CgQZ3yxv4rQEkZ-88" target="3s4oe4CgQZ3yxv4rQEkZ-92" edge="1">
          <mxGeometry width="50" height="50" relative="1" as="geometry">
            <mxPoint x="342" y="3530" as="sourcePoint" />
            <mxPoint x="392" y="3480" as="targetPoint" />
          </mxGeometry>
        </mxCell>
        <mxCell id="3s4oe4CgQZ3yxv4rQEkZ-97" value="" style="endArrow=none;html=1;rounded=0;entryX=0;entryY=1;entryDx=0;entryDy=0;" parent="1" target="3s4oe4CgQZ3yxv4rQEkZ-89" edge="1">
          <mxGeometry width="50" height="50" relative="1" as="geometry">
            <mxPoint x="342" y="3460" as="sourcePoint" />
            <mxPoint x="392" y="3480" as="targetPoint" />
          </mxGeometry>
        </mxCell>
        <mxCell id="3s4oe4CgQZ3yxv4rQEkZ-98" value="vender producto" style="ellipse;whiteSpace=wrap;html=1;" parent="1" vertex="1">
          <mxGeometry x="302" y="3460" width="120" height="80" as="geometry" />
        </mxCell>
        <mxCell id="3s4oe4CgQZ3yxv4rQEkZ-99" value="" style="endArrow=none;html=1;rounded=0;exitX=1;exitY=0;exitDx=0;exitDy=0;entryX=0;entryY=1;entryDx=0;entryDy=0;" parent="1" source="3s4oe4CgQZ3yxv4rQEkZ-92" target="3s4oe4CgQZ3yxv4rQEkZ-98" edge="1">
          <mxGeometry width="50" height="50" relative="1" as="geometry">
            <mxPoint x="342" y="3530" as="sourcePoint" />
            <mxPoint x="392" y="3480" as="targetPoint" />
          </mxGeometry>
        </mxCell>
        <mxCell id="3s4oe4CgQZ3yxv4rQEkZ-100" value="" style="endArrow=none;html=1;rounded=0;exitX=1;exitY=0.5;exitDx=0;exitDy=0;entryX=0;entryY=0.5;entryDx=0;entryDy=0;" parent="1" source="3s4oe4CgQZ3yxv4rQEkZ-92" target="3s4oe4CgQZ3yxv4rQEkZ-90" edge="1">
          <mxGeometry width="50" height="50" relative="1" as="geometry">
            <mxPoint x="342" y="3530" as="sourcePoint" />
            <mxPoint x="392" y="3480" as="targetPoint" />
          </mxGeometry>
        </mxCell>
        <mxCell id="3s4oe4CgQZ3yxv4rQEkZ-101" value="" style="endArrow=none;html=1;rounded=0;exitX=1;exitY=0.5;exitDx=0;exitDy=0;entryX=0;entryY=0.3333333333333333;entryDx=0;entryDy=0;entryPerimeter=0;" parent="1" source="3s4oe4CgQZ3yxv4rQEkZ-90" target="3s4oe4CgQZ3yxv4rQEkZ-91" edge="1">
          <mxGeometry width="50" height="50" relative="1" as="geometry">
            <mxPoint x="342" y="3530" as="sourcePoint" />
            <mxPoint x="392" y="3480" as="targetPoint" />
          </mxGeometry>
        </mxCell>
        <mxCell id="3s4oe4CgQZ3yxv4rQEkZ-102" value="7.&amp;nbsp; Control de calidad" style="text;html=1;align=center;verticalAlign=middle;whiteSpace=wrap;rounded=0;" parent="1" vertex="1">
          <mxGeometry x="86.5" y="3810" width="233.5" height="30" as="geometry" />
        </mxCell>
        <mxCell id="3s4oe4CgQZ3yxv4rQEkZ-103" value="Operario" style="shape=umlActor;verticalLabelPosition=bottom;verticalAlign=top;html=1;outlineConnect=0;" parent="1" vertex="1">
          <mxGeometry x="105" y="4000" width="30" height="60" as="geometry" />
        </mxCell>
        <mxCell id="3s4oe4CgQZ3yxv4rQEkZ-104" value="Registrar inspecciÃ³n" style="ellipse;whiteSpace=wrap;html=1;" parent="1" vertex="1">
          <mxGeometry x="319" y="3940" width="120" height="80" as="geometry" />
        </mxCell>
        <mxCell id="3s4oe4CgQZ3yxv4rQEkZ-105" value="Conformidad/No conformidad" style="ellipse;whiteSpace=wrap;html=1;" parent="1" vertex="1">
          <mxGeometry x="304" y="4090" width="120" height="80" as="geometry" />
        </mxCell>
        <mxCell id="3s4oe4CgQZ3yxv4rQEkZ-106" value="Auditor" style="shape=umlActor;verticalLabelPosition=bottom;verticalAlign=top;html=1;outlineConnect=0;" parent="1" vertex="1">
          <mxGeometry x="690" y="3960" width="30" height="60" as="geometry" />
        </mxCell>
        <mxCell id="3s4oe4CgQZ3yxv4rQEkZ-107" value="Plan de calidad" style="ellipse;whiteSpace=wrap;html=1;" parent="1" vertex="1">
          <mxGeometry x="520" y="3870" width="120" height="80" as="geometry" />
        </mxCell>
        <mxCell id="3s4oe4CgQZ3yxv4rQEkZ-108" value="auditoria" style="ellipse;whiteSpace=wrap;html=1;" parent="1" vertex="1">
          <mxGeometry x="535" y="4180" width="120" height="80" as="geometry" />
        </mxCell>
        <mxCell id="26vDbUltH0rkw3oXoR3C-1" value="" style="endArrow=none;html=1;rounded=0;exitX=1;exitY=0.3333333333333333;exitDx=0;exitDy=0;exitPerimeter=0;entryX=0;entryY=0.5;entryDx=0;entryDy=0;" edge="1" parent="1" source="3s4oe4CgQZ3yxv4rQEkZ-103" target="3s4oe4CgQZ3yxv4rQEkZ-104">
          <mxGeometry width="50" height="50" relative="1" as="geometry">
            <mxPoint x="200" y="4100" as="sourcePoint" />
            <mxPoint x="250" y="4050" as="targetPoint" />
          </mxGeometry>
        </mxCell>
        <mxCell id="26vDbUltH0rkw3oXoR3C-2" value="" style="endArrow=none;html=1;rounded=0;entryX=0.5;entryY=1;entryDx=0;entryDy=0;exitX=0.686;exitY=0.066;exitDx=0;exitDy=0;exitPerimeter=0;" edge="1" parent="1" source="3s4oe4CgQZ3yxv4rQEkZ-105" target="3s4oe4CgQZ3yxv4rQEkZ-104">
          <mxGeometry width="50" height="50" relative="1" as="geometry">
            <mxPoint x="200" y="4100" as="sourcePoint" />
            <mxPoint x="250" y="4050" as="targetPoint" />
          </mxGeometry>
        </mxCell>
        <mxCell id="26vDbUltH0rkw3oXoR3C-3" value="Reporte" style="ellipse;whiteSpace=wrap;html=1;" vertex="1" parent="1">
          <mxGeometry x="475" y="4052" width="120" height="80" as="geometry" />
        </mxCell>
        <mxCell id="26vDbUltH0rkw3oXoR3C-4" value="" style="endArrow=none;html=1;rounded=0;exitX=1;exitY=0.5;exitDx=0;exitDy=0;" edge="1" parent="1" source="3s4oe4CgQZ3yxv4rQEkZ-107" target="3s4oe4CgQZ3yxv4rQEkZ-106">
          <mxGeometry width="50" height="50" relative="1" as="geometry">
            <mxPoint x="200" y="4100" as="sourcePoint" />
            <mxPoint x="250" y="4050" as="targetPoint" />
          </mxGeometry>
        </mxCell>
        <mxCell id="26vDbUltH0rkw3oXoR3C-5" value="" style="endArrow=none;html=1;rounded=0;exitX=1;exitY=0;exitDx=0;exitDy=0;entryX=0;entryY=1;entryDx=0;entryDy=0;" edge="1" parent="1" source="3s4oe4CgQZ3yxv4rQEkZ-105" target="3s4oe4CgQZ3yxv4rQEkZ-107">
          <mxGeometry width="50" height="50" relative="1" as="geometry">
            <mxPoint x="480" y="4100" as="sourcePoint" />
            <mxPoint x="530" y="4050" as="targetPoint" />
          </mxGeometry>
        </mxCell>
        <mxCell id="26vDbUltH0rkw3oXoR3C-6" value="" style="endArrow=none;html=1;rounded=0;entryX=0;entryY=0.3333333333333333;entryDx=0;entryDy=0;entryPerimeter=0;exitX=0.692;exitY=0.073;exitDx=0;exitDy=0;exitPerimeter=0;" edge="1" parent="1" source="26vDbUltH0rkw3oXoR3C-3" target="3s4oe4CgQZ3yxv4rQEkZ-106">
          <mxGeometry width="50" height="50" relative="1" as="geometry">
            <mxPoint x="480" y="4100" as="sourcePoint" />
            <mxPoint x="530" y="4050" as="targetPoint" />
          </mxGeometry>
        </mxCell>
        <mxCell id="26vDbUltH0rkw3oXoR3C-7" value="" style="endArrow=none;html=1;rounded=0;exitX=1;exitY=0;exitDx=0;exitDy=0;" edge="1" parent="1" source="3s4oe4CgQZ3yxv4rQEkZ-108" target="3s4oe4CgQZ3yxv4rQEkZ-106">
          <mxGeometry width="50" height="50" relative="1" as="geometry">
            <mxPoint x="480" y="4100" as="sourcePoint" />
            <mxPoint x="530" y="4050" as="targetPoint" />
          </mxGeometry>
        </mxCell>
        <mxCell id="26vDbUltH0rkw3oXoR3C-9" value="8. Streaming de musica" style="text;html=1;align=center;verticalAlign=middle;whiteSpace=wrap;rounded=0;" vertex="1" parent="1">
          <mxGeometry x="75" y="4300" width="225" height="30" as="geometry" />
        </mxCell>
        <mxCell id="26vDbUltH0rkw3oXoR3C-10" value="Usuario" style="shape=umlActor;verticalLabelPosition=bottom;verticalAlign=top;html=1;outlineConnect=0;" vertex="1" parent="1">
          <mxGeometry x="90" y="4550" width="30" height="60" as="geometry" />
        </mxCell>
        <mxCell id="26vDbUltH0rkw3oXoR3C-11" value="Reproducir musica" style="ellipse;whiteSpace=wrap;html=1;" vertex="1" parent="1">
          <mxGeometry x="265" y="4510" width="120" height="80" as="geometry" />
        </mxCell>
        <mxCell id="26vDbUltH0rkw3oXoR3C-12" value="Iniciar sesion" style="ellipse;whiteSpace=wrap;html=1;" vertex="1" parent="1">
          <mxGeometry x="260" y="4380" width="120" height="80" as="geometry" />
        </mxCell>
        <mxCell id="26vDbUltH0rkw3oXoR3C-13" value="Validar inicio de sesiÃ³n" style="ellipse;whiteSpace=wrap;html=1;" vertex="1" parent="1">
          <mxGeometry x="467" y="4430" width="120" height="80" as="geometry" />
        </mxCell>
        <mxCell id="26vDbUltH0rkw3oXoR3C-14" value="Buscar musica" style="ellipse;whiteSpace=wrap;html=1;" vertex="1" parent="1">
          <mxGeometry x="260" y="4616" width="120" height="80" as="geometry" />
        </mxCell>
        <mxCell id="26vDbUltH0rkw3oXoR3C-15" value="crear playlist" style="ellipse;whiteSpace=wrap;html=1;" vertex="1" parent="1">
          <mxGeometry x="260" y="4740" width="120" height="80" as="geometry" />
        </mxCell>
        <mxCell id="26vDbUltH0rkw3oXoR3C-16" value="Recomendar musica" style="ellipse;whiteSpace=wrap;html=1;" vertex="1" parent="1">
          <mxGeometry x="450" y="4590" width="120" height="80" as="geometry" />
        </mxCell>
        <mxCell id="26vDbUltH0rkw3oXoR3C-17" value="Sistema" style="shape=umlActor;verticalLabelPosition=bottom;verticalAlign=top;html=1;outlineConnect=0;" vertex="1" parent="1">
          <mxGeometry x="670" y="4616" width="30" height="60" as="geometry" />
        </mxCell>
        <mxCell id="26vDbUltH0rkw3oXoR3C-19" value="" style="endArrow=none;html=1;rounded=0;exitX=1;exitY=0.3333333333333333;exitDx=0;exitDy=0;exitPerimeter=0;entryX=0.014;entryY=0.655;entryDx=0;entryDy=0;entryPerimeter=0;" edge="1" parent="1" source="26vDbUltH0rkw3oXoR3C-10" target="26vDbUltH0rkw3oXoR3C-12">
          <mxGeometry width="50" height="50" relative="1" as="geometry">
            <mxPoint x="350" y="4600" as="sourcePoint" />
            <mxPoint x="400" y="4550" as="targetPoint" />
          </mxGeometry>
        </mxCell>
        <mxCell id="26vDbUltH0rkw3oXoR3C-21" value="" style="endArrow=none;html=1;rounded=0;exitX=1;exitY=0.3333333333333333;exitDx=0;exitDy=0;exitPerimeter=0;entryX=0;entryY=0;entryDx=0;entryDy=0;" edge="1" parent="1" source="26vDbUltH0rkw3oXoR3C-10" target="26vDbUltH0rkw3oXoR3C-11">
          <mxGeometry width="50" height="50" relative="1" as="geometry">
            <mxPoint x="350" y="4600" as="sourcePoint" />
            <mxPoint x="400" y="4550" as="targetPoint" />
          </mxGeometry>
        </mxCell>
        <mxCell id="26vDbUltH0rkw3oXoR3C-22" value="" style="endArrow=none;html=1;rounded=0;exitX=1;exitY=0.3333333333333333;exitDx=0;exitDy=0;exitPerimeter=0;entryX=0;entryY=0.5;entryDx=0;entryDy=0;" edge="1" parent="1" source="26vDbUltH0rkw3oXoR3C-10" target="26vDbUltH0rkw3oXoR3C-14">
          <mxGeometry width="50" height="50" relative="1" as="geometry">
            <mxPoint x="350" y="4600" as="sourcePoint" />
            <mxPoint x="400" y="4550" as="targetPoint" />
          </mxGeometry>
        </mxCell>
        <mxCell id="26vDbUltH0rkw3oXoR3C-23" value="" style="endArrow=none;html=1;rounded=0;entryX=1;entryY=0.3333333333333333;entryDx=0;entryDy=0;entryPerimeter=0;exitX=0;exitY=0;exitDx=0;exitDy=0;" edge="1" parent="1" source="26vDbUltH0rkw3oXoR3C-15" target="26vDbUltH0rkw3oXoR3C-10">
          <mxGeometry width="50" height="50" relative="1" as="geometry">
            <mxPoint x="290" y="4780" as="sourcePoint" />
            <mxPoint x="400" y="4790" as="targetPoint" />
          </mxGeometry>
        </mxCell>
        <mxCell id="26vDbUltH0rkw3oXoR3C-24" value="" style="endArrow=none;html=1;rounded=0;entryX=0;entryY=0.3333333333333333;entryDx=0;entryDy=0;entryPerimeter=0;" edge="1" parent="1" source="26vDbUltH0rkw3oXoR3C-16" target="26vDbUltH0rkw3oXoR3C-17">
          <mxGeometry width="50" height="50" relative="1" as="geometry">
            <mxPoint x="350" y="4730" as="sourcePoint" />
            <mxPoint x="400" y="4680" as="targetPoint" />
          </mxGeometry>
        </mxCell>
        <mxCell id="26vDbUltH0rkw3oXoR3C-25" value="" style="endArrow=none;html=1;rounded=0;exitX=0.956;exitY=0.745;exitDx=0;exitDy=0;exitPerimeter=0;" edge="1" parent="1" source="26vDbUltH0rkw3oXoR3C-13">
          <mxGeometry width="50" height="50" relative="1" as="geometry">
            <mxPoint x="630" y="4630" as="sourcePoint" />
            <mxPoint x="670" y="4630" as="targetPoint" />
          </mxGeometry>
        </mxCell>
        <mxCell id="26vDbUltH0rkw3oXoR3C-26" value="" style="endArrow=none;html=1;rounded=0;entryX=1;entryY=0.5;entryDx=0;entryDy=0;exitX=0.08;exitY=0.673;exitDx=0;exitDy=0;exitPerimeter=0;" edge="1" parent="1" source="26vDbUltH0rkw3oXoR3C-13" target="26vDbUltH0rkw3oXoR3C-12">
          <mxGeometry width="50" height="50" relative="1" as="geometry">
            <mxPoint x="350" y="4620" as="sourcePoint" />
            <mxPoint x="400" y="4570" as="targetPoint" />
          </mxGeometry>
        </mxCell>
        <mxCell id="26vDbUltH0rkw3oXoR3C-27" value="9. Control de accesos" style="text;html=1;align=center;verticalAlign=middle;whiteSpace=wrap;rounded=0;" vertex="1" parent="1">
          <mxGeometry x="90" y="4890" width="180" height="30" as="geometry" />
        </mxCell>
        <mxCell id="26vDbUltH0rkw3oXoR3C-28" value="Empleado" style="shape=umlActor;verticalLabelPosition=bottom;verticalAlign=top;html=1;outlineConnect=0;" vertex="1" parent="1">
          <mxGeometry x="140" y="5030" width="30" height="60" as="geometry" />
        </mxCell>
        <mxCell id="26vDbUltH0rkw3oXoR3C-29" value="Administradorr" style="shape=umlActor;verticalLabelPosition=bottom;verticalAlign=top;html=1;outlineConnect=0;" vertex="1" parent="1">
          <mxGeometry x="197" y="5290" width="30" height="60" as="geometry" />
        </mxCell>
        <mxCell id="26vDbUltH0rkw3oXoR3C-31" value="Solicitar acceso" style="ellipse;whiteSpace=wrap;html=1;" vertex="1" parent="1">
          <mxGeometry x="310" y="4990" width="120" height="80" as="geometry" />
        </mxCell>
        <mxCell id="26vDbUltH0rkw3oXoR3C-32" value="Verificar autenticidad" style="ellipse;whiteSpace=wrap;html=1;" vertex="1" parent="1">
          <mxGeometry x="467" y="5070" width="120" height="80" as="geometry" />
        </mxCell>
        <mxCell id="26vDbUltH0rkw3oXoR3C-33" value="" style="endArrow=none;html=1;rounded=0;exitX=1;exitY=0.3333333333333333;exitDx=0;exitDy=0;exitPerimeter=0;entryX=0;entryY=0.5;entryDx=0;entryDy=0;" edge="1" parent="1" source="26vDbUltH0rkw3oXoR3C-28" target="26vDbUltH0rkw3oXoR3C-31">
          <mxGeometry width="50" height="50" relative="1" as="geometry">
            <mxPoint x="350" y="5200" as="sourcePoint" />
            <mxPoint x="400" y="5150" as="targetPoint" />
          </mxGeometry>
        </mxCell>
        <mxCell id="26vDbUltH0rkw3oXoR3C-34" value="" style="endArrow=none;html=1;rounded=0;entryX=1;entryY=0.5;entryDx=0;entryDy=0;exitX=0;exitY=0;exitDx=0;exitDy=0;" edge="1" parent="1" source="26vDbUltH0rkw3oXoR3C-32" target="26vDbUltH0rkw3oXoR3C-31">
          <mxGeometry width="50" height="50" relative="1" as="geometry">
            <mxPoint x="350" y="5200" as="sourcePoint" />
            <mxPoint x="400" y="5150" as="targetPoint" />
          </mxGeometry>
        </mxCell>
        <mxCell id="26vDbUltH0rkw3oXoR3C-35" value="acceso permitido" style="ellipse;whiteSpace=wrap;html=1;" vertex="1" parent="1">
          <mxGeometry x="310" y="5130" width="120" height="80" as="geometry" />
        </mxCell>
        <mxCell id="26vDbUltH0rkw3oXoR3C-36" value="" style="endArrow=none;html=1;rounded=0;exitX=1;exitY=0.3333333333333333;exitDx=0;exitDy=0;exitPerimeter=0;entryX=0.312;entryY=1.023;entryDx=0;entryDy=0;entryPerimeter=0;" edge="1" parent="1" source="26vDbUltH0rkw3oXoR3C-29" target="26vDbUltH0rkw3oXoR3C-35">
          <mxGeometry width="50" height="50" relative="1" as="geometry">
            <mxPoint x="350" y="5200" as="sourcePoint" />
            <mxPoint x="400" y="5150" as="targetPoint" />
          </mxGeometry>
        </mxCell>
        <mxCell id="26vDbUltH0rkw3oXoR3C-37" value="" style="endArrow=none;html=1;rounded=0;entryX=0;entryY=1;entryDx=0;entryDy=0;exitX=1;exitY=0.5;exitDx=0;exitDy=0;" edge="1" parent="1" source="26vDbUltH0rkw3oXoR3C-35" target="26vDbUltH0rkw3oXoR3C-32">
          <mxGeometry width="50" height="50" relative="1" as="geometry">
            <mxPoint x="350" y="5200" as="sourcePoint" />
            <mxPoint x="400" y="5150" as="targetPoint" />
          </mxGeometry>
        </mxCell>
        <mxCell id="26vDbUltH0rkw3oXoR3C-38" value="registro" style="ellipse;whiteSpace=wrap;html=1;" vertex="1" parent="1">
          <mxGeometry x="347" y="5260" width="120" height="80" as="geometry" />
        </mxCell>
        <mxCell id="26vDbUltH0rkw3oXoR3C-39" value="" style="endArrow=none;html=1;rounded=0;exitX=1;exitY=0.3333333333333333;exitDx=0;exitDy=0;exitPerimeter=0;entryX=0;entryY=0.5;entryDx=0;entryDy=0;" edge="1" parent="1" source="26vDbUltH0rkw3oXoR3C-29" target="26vDbUltH0rkw3oXoR3C-38">
          <mxGeometry width="50" height="50" relative="1" as="geometry">
            <mxPoint x="350" y="5290" as="sourcePoint" />
            <mxPoint x="400" y="5240" as="targetPoint" />
          </mxGeometry>
        </mxCell>
        <mxCell id="26vDbUltH0rkw3oXoR3C-40" value="10. Carrito de compras" style="text;html=1;align=center;verticalAlign=middle;whiteSpace=wrap;rounded=0;" vertex="1" parent="1">
          <mxGeometry x="100" y="5470" width="180" height="30" as="geometry" />
        </mxCell>
        <mxCell id="26vDbUltH0rkw3oXoR3C-41" value="Usuario" style="shape=umlActor;verticalLabelPosition=bottom;verticalAlign=top;html=1;outlineConnect=0;" vertex="1" parent="1">
          <mxGeometry x="150" y="5630" width="30" height="60" as="geometry" />
        </mxCell>
        <mxCell id="26vDbUltH0rkw3oXoR3C-42" value="Administrador" style="shape=umlActor;verticalLabelPosition=bottom;verticalAlign=top;html=1;outlineConnect=0;" vertex="1" parent="1">
          <mxGeometry x="730" y="5780" width="30" height="60" as="geometry" />
        </mxCell>
        <mxCell id="26vDbUltH0rkw3oXoR3C-44" value="coger carrito" style="ellipse;whiteSpace=wrap;html=1;" vertex="1" parent="1">
          <mxGeometry x="285" y="5540" width="120" height="80" as="geometry" />
        </mxCell>
        <mxCell id="26vDbUltH0rkw3oXoR3C-45" value="escoger producto" style="ellipse;whiteSpace=wrap;html=1;" vertex="1" parent="1">
          <mxGeometry x="450" y="5570" width="120" height="80" as="geometry" />
        </mxCell>
        <mxCell id="26vDbUltH0rkw3oXoR3C-46" value="ver carrito" style="ellipse;whiteSpace=wrap;html=1;" vertex="1" parent="1">
          <mxGeometry x="277.5" y="5700" width="120" height="80" as="geometry" />
        </mxCell>
        <mxCell id="26vDbUltH0rkw3oXoR3C-47" value="comprar" style="ellipse;whiteSpace=wrap;html=1;" vertex="1" parent="1">
          <mxGeometry x="277.5" y="5840" width="120" height="80" as="geometry" />
        </mxCell>
        <mxCell id="26vDbUltH0rkw3oXoR3C-48" value="pagar" style="ellipse;whiteSpace=wrap;html=1;" vertex="1" parent="1">
          <mxGeometry x="450" y="5780" width="120" height="80" as="geometry" />
        </mxCell>
        <mxCell id="26vDbUltH0rkw3oXoR3C-50" value="" style="endArrow=none;html=1;rounded=0;entryX=0.5;entryY=0.5;entryDx=0;entryDy=0;entryPerimeter=0;exitX=0.006;exitY=0.655;exitDx=0;exitDy=0;exitPerimeter=0;" edge="1" parent="1" source="26vDbUltH0rkw3oXoR3C-44" target="26vDbUltH0rkw3oXoR3C-41">
          <mxGeometry width="50" height="50" relative="1" as="geometry">
            <mxPoint x="350" y="5800" as="sourcePoint" />
            <mxPoint x="400" y="5750" as="targetPoint" />
          </mxGeometry>
        </mxCell>
        <mxCell id="26vDbUltH0rkw3oXoR3C-52" value="" style="endArrow=none;html=1;rounded=0;entryX=0.5;entryY=0.5;entryDx=0;entryDy=0;entryPerimeter=0;exitX=0;exitY=0;exitDx=0;exitDy=0;" edge="1" parent="1" source="26vDbUltH0rkw3oXoR3C-46" target="26vDbUltH0rkw3oXoR3C-41">
          <mxGeometry width="50" height="50" relative="1" as="geometry">
            <mxPoint x="401" y="5590" as="sourcePoint" />
            <mxPoint x="280" y="5658" as="targetPoint" />
          </mxGeometry>
        </mxCell>
        <mxCell id="26vDbUltH0rkw3oXoR3C-53" value="" style="endArrow=none;html=1;rounded=0;exitX=0;exitY=0;exitDx=0;exitDy=0;entryX=0.5;entryY=0.5;entryDx=0;entryDy=0;entryPerimeter=0;" edge="1" parent="1" source="26vDbUltH0rkw3oXoR3C-47" target="26vDbUltH0rkw3oXoR3C-41">
          <mxGeometry width="50" height="50" relative="1" as="geometry">
            <mxPoint x="410" y="5762" as="sourcePoint" />
            <mxPoint x="180" y="5660" as="targetPoint" />
          </mxGeometry>
        </mxCell>
        <mxCell id="26vDbUltH0rkw3oXoR3C-54" value="" style="endArrow=none;html=1;rounded=0;exitX=0;exitY=0.5;exitDx=0;exitDy=0;" edge="1" parent="1" source="26vDbUltH0rkw3oXoR3C-45">
          <mxGeometry width="50" height="50" relative="1" as="geometry">
            <mxPoint x="250" y="5862" as="sourcePoint" />
            <mxPoint x="400" y="5590" as="targetPoint" />
          </mxGeometry>
        </mxCell>
        <mxCell id="26vDbUltH0rkw3oXoR3C-55" value="" style="endArrow=none;html=1;rounded=0;entryX=0;entryY=1;entryDx=0;entryDy=0;exitX=1;exitY=0.5;exitDx=0;exitDy=0;" edge="1" parent="1" source="26vDbUltH0rkw3oXoR3C-47" target="26vDbUltH0rkw3oXoR3C-48">
          <mxGeometry width="50" height="50" relative="1" as="geometry">
            <mxPoint x="420" y="5880" as="sourcePoint" />
            <mxPoint x="460" y="5660" as="targetPoint" />
          </mxGeometry>
        </mxCell>
        <mxCell id="26vDbUltH0rkw3oXoR3C-56" value="" style="endArrow=none;html=1;rounded=0;entryX=0;entryY=0.3333333333333333;entryDx=0;entryDy=0;entryPerimeter=0;exitX=0.945;exitY=0.655;exitDx=0;exitDy=0;exitPerimeter=0;" edge="1" parent="1" source="26vDbUltH0rkw3oXoR3C-48" target="26vDbUltH0rkw3oXoR3C-42">
          <mxGeometry width="50" height="50" relative="1" as="geometry">
            <mxPoint x="350" y="5800" as="sourcePoint" />
            <mxPoint x="400" y="5750" as="targetPoint" />
          </mxGeometry>
        </mxCell>
        <mxCell id="26vDbUltH0rkw3oXoR3C-57" value="11. Plataforma de blogs" style="text;html=1;align=center;verticalAlign=middle;whiteSpace=wrap;rounded=0;" vertex="1" parent="1">
          <mxGeometry x="110" y="6020" width="230" height="30" as="geometry" />
        </mxCell>
        <mxCell id="26vDbUltH0rkw3oXoR3C-58" value="Usuario" style="shape=umlActor;verticalLabelPosition=bottom;verticalAlign=top;html=1;outlineConnect=0;" vertex="1" parent="1">
          <mxGeometry x="105" y="6270" width="30" height="60" as="geometry" />
        </mxCell>
        <mxCell id="26vDbUltH0rkw3oXoR3C-59" value="Iniciar sesion" style="ellipse;whiteSpace=wrap;html=1;" vertex="1" parent="1">
          <mxGeometry x="245" y="6200" width="120" height="80" as="geometry" />
        </mxCell>
        <mxCell id="26vDbUltH0rkw3oXoR3C-60" value="Sistema" style="shape=umlActor;verticalLabelPosition=bottom;verticalAlign=top;html=1;outlineConnect=0;" vertex="1" parent="1">
          <mxGeometry x="730" y="6280" width="30" height="60" as="geometry" />
        </mxCell>
        <mxCell id="26vDbUltH0rkw3oXoR3C-62" value="validacion de datos" style="ellipse;whiteSpace=wrap;html=1;" vertex="1" parent="1">
          <mxGeometry x="457" y="6140" width="120" height="80" as="geometry" />
        </mxCell>
        <mxCell id="26vDbUltH0rkw3oXoR3C-63" value="registrar" style="ellipse;whiteSpace=wrap;html=1;" vertex="1" parent="1">
          <mxGeometry x="225" y="6080" width="120" height="80" as="geometry" />
        </mxCell>
        <mxCell id="26vDbUltH0rkw3oXoR3C-64" value="" style="endArrow=none;html=1;rounded=0;exitX=1;exitY=0.3333333333333333;exitDx=0;exitDy=0;exitPerimeter=0;entryX=0;entryY=1;entryDx=0;entryDy=0;" edge="1" parent="1" source="26vDbUltH0rkw3oXoR3C-58" target="26vDbUltH0rkw3oXoR3C-63">
          <mxGeometry width="50" height="50" relative="1" as="geometry">
            <mxPoint x="350" y="6120" as="sourcePoint" />
            <mxPoint x="400" y="6070" as="targetPoint" />
          </mxGeometry>
        </mxCell>
        <mxCell id="26vDbUltH0rkw3oXoR3C-65" value="" style="endArrow=none;html=1;rounded=0;exitX=1;exitY=0.3333333333333333;exitDx=0;exitDy=0;exitPerimeter=0;entryX=0;entryY=0.5;entryDx=0;entryDy=0;" edge="1" parent="1" source="26vDbUltH0rkw3oXoR3C-58" target="26vDbUltH0rkw3oXoR3C-59">
          <mxGeometry width="50" height="50" relative="1" as="geometry">
            <mxPoint x="170" y="6170" as="sourcePoint" />
            <mxPoint x="400" y="6070" as="targetPoint" />
          </mxGeometry>
        </mxCell>
        <mxCell id="26vDbUltH0rkw3oXoR3C-66" value="" style="endArrow=none;html=1;rounded=0;exitX=1;exitY=0.5;exitDx=0;exitDy=0;entryX=0;entryY=0.5;entryDx=0;entryDy=0;" edge="1" parent="1" source="26vDbUltH0rkw3oXoR3C-59" target="26vDbUltH0rkw3oXoR3C-62">
          <mxGeometry width="50" height="50" relative="1" as="geometry">
            <mxPoint x="350" y="6120" as="sourcePoint" />
            <mxPoint x="400" y="6070" as="targetPoint" />
          </mxGeometry>
        </mxCell>
        <mxCell id="26vDbUltH0rkw3oXoR3C-67" value="" style="endArrow=none;html=1;rounded=0;entryX=0;entryY=0;entryDx=0;entryDy=0;exitX=1;exitY=0.3333333333333333;exitDx=0;exitDy=0;exitPerimeter=0;" edge="1" parent="1" source="26vDbUltH0rkw3oXoR3C-58" target="26vDbUltH0rkw3oXoR3C-69">
          <mxGeometry width="50" height="50" relative="1" as="geometry">
            <mxPoint x="160" y="6200" as="sourcePoint" />
            <mxPoint x="400" y="6100" as="targetPoint" />
          </mxGeometry>
        </mxCell>
        <mxCell id="26vDbUltH0rkw3oXoR3C-68" value="" style="endArrow=none;html=1;rounded=0;exitX=0.5;exitY=0.5;exitDx=0;exitDy=0;exitPerimeter=0;" edge="1" parent="1" source="26vDbUltH0rkw3oXoR3C-60" target="26vDbUltH0rkw3oXoR3C-62">
          <mxGeometry width="50" height="50" relative="1" as="geometry">
            <mxPoint x="580" y="6350" as="sourcePoint" />
            <mxPoint x="630" y="6300" as="targetPoint" />
          </mxGeometry>
        </mxCell>
        <mxCell id="26vDbUltH0rkw3oXoR3C-69" value="crear blog" style="ellipse;whiteSpace=wrap;html=1;" vertex="1" parent="1">
          <mxGeometry x="245" y="6320" width="120" height="80" as="geometry" />
        </mxCell>
        <mxCell id="26vDbUltH0rkw3oXoR3C-70" value="gestionar blog" style="ellipse;whiteSpace=wrap;html=1;" vertex="1" parent="1">
          <mxGeometry x="252.5" y="6429" width="120" height="60" as="geometry" />
        </mxCell>
        <mxCell id="26vDbUltH0rkw3oXoR3C-71" value="" style="endArrow=none;html=1;rounded=0;entryX=1;entryY=0.3333333333333333;entryDx=0;entryDy=0;entryPerimeter=0;exitX=0;exitY=0;exitDx=0;exitDy=0;" edge="1" parent="1" source="26vDbUltH0rkw3oXoR3C-70" target="26vDbUltH0rkw3oXoR3C-58">
          <mxGeometry width="50" height="50" relative="1" as="geometry">
            <mxPoint x="180" y="6380" as="sourcePoint" />
            <mxPoint x="230" y="6330" as="targetPoint" />
          </mxGeometry>
        </mxCell>
        <mxCell id="26vDbUltH0rkw3oXoR3C-72" value="12.Gestion de inventario de farmacias" style="text;html=1;align=center;verticalAlign=middle;whiteSpace=wrap;rounded=0;" vertex="1" parent="1">
          <mxGeometry x="105" y="6560" width="305" height="30" as="geometry" />
        </mxCell>
        <mxCell id="26vDbUltH0rkw3oXoR3C-74" value="Empleado&lt;div&gt;&lt;br&gt;&lt;/div&gt;" style="shape=umlActor;verticalLabelPosition=bottom;verticalAlign=top;html=1;outlineConnect=0;" vertex="1" parent="1">
          <mxGeometry x="100" y="6790" width="30" height="60" as="geometry" />
        </mxCell>
        <mxCell id="26vDbUltH0rkw3oXoR3C-76" value="Registra producto" style="ellipse;whiteSpace=wrap;html=1;" vertex="1" parent="1">
          <mxGeometry x="200" y="6640" width="120" height="80" as="geometry" />
        </mxCell>
        <mxCell id="26vDbUltH0rkw3oXoR3C-77" value="Actualiza stock" style="ellipse;whiteSpace=wrap;html=1;" vertex="1" parent="1">
          <mxGeometry x="210" y="6760" width="120" height="80" as="geometry" />
        </mxCell>
        <mxCell id="26vDbUltH0rkw3oXoR3C-78" value="Consutar stock" style="ellipse;whiteSpace=wrap;html=1;" vertex="1" parent="1">
          <mxGeometry x="200" y="6880" width="120" height="80" as="geometry" />
        </mxCell>
        <mxCell id="26vDbUltH0rkw3oXoR3C-80" value="" style="endArrow=none;html=1;rounded=0;exitX=1;exitY=0.3333333333333333;exitDx=0;exitDy=0;exitPerimeter=0;entryX=0;entryY=1;entryDx=0;entryDy=0;" edge="1" parent="1" source="26vDbUltH0rkw3oXoR3C-74" target="26vDbUltH0rkw3oXoR3C-76">
          <mxGeometry width="50" height="50" relative="1" as="geometry">
            <mxPoint x="340" y="6920" as="sourcePoint" />
            <mxPoint x="390" y="6870" as="targetPoint" />
          </mxGeometry>
        </mxCell>
        <mxCell id="26vDbUltH0rkw3oXoR3C-81" value="" style="endArrow=none;html=1;rounded=0;entryX=1;entryY=0.3333333333333333;entryDx=0;entryDy=0;entryPerimeter=0;exitX=0;exitY=0.5;exitDx=0;exitDy=0;" edge="1" parent="1" source="26vDbUltH0rkw3oXoR3C-77" target="26vDbUltH0rkw3oXoR3C-74">
          <mxGeometry width="50" height="50" relative="1" as="geometry">
            <mxPoint x="340" y="6920" as="sourcePoint" />
            <mxPoint x="390" y="6870" as="targetPoint" />
          </mxGeometry>
        </mxCell>
        <mxCell id="26vDbUltH0rkw3oXoR3C-82" value="" style="endArrow=none;html=1;rounded=0;exitX=1;exitY=0.3333333333333333;exitDx=0;exitDy=0;exitPerimeter=0;entryX=0;entryY=0;entryDx=0;entryDy=0;" edge="1" parent="1" source="26vDbUltH0rkw3oXoR3C-74" target="26vDbUltH0rkw3oXoR3C-78">
          <mxGeometry width="50" height="50" relative="1" as="geometry">
            <mxPoint x="340" y="6920" as="sourcePoint" />
            <mxPoint x="390" y="6870" as="targetPoint" />
          </mxGeometry>
        </mxCell>
        <mxCell id="26vDbUltH0rkw3oXoR3C-83" value="Sistema" style="shape=umlActor;verticalLabelPosition=bottom;verticalAlign=top;html=1;outlineConnect=0;" vertex="1" parent="1">
          <mxGeometry x="490" y="6870" width="30" height="60" as="geometry" />
        </mxCell>
        <mxCell id="26vDbUltH0rkw3oXoR3C-84" value="" style="endArrow=none;html=1;rounded=0;entryX=1;entryY=0.5;entryDx=0;entryDy=0;exitX=0;exitY=0.3333333333333333;exitDx=0;exitDy=0;exitPerimeter=0;" edge="1" parent="1" source="26vDbUltH0rkw3oXoR3C-83" target="26vDbUltH0rkw3oXoR3C-77">
          <mxGeometry width="50" height="50" relative="1" as="geometry">
            <mxPoint x="340" y="6920" as="sourcePoint" />
            <mxPoint x="390" y="6870" as="targetPoint" />
          </mxGeometry>
        </mxCell>
        <mxCell id="26vDbUltH0rkw3oXoR3C-85" value="" style="endArrow=none;html=1;rounded=0;exitX=1;exitY=0.5;exitDx=0;exitDy=0;entryX=0;entryY=0.3333333333333333;entryDx=0;entryDy=0;entryPerimeter=0;" edge="1" parent="1" source="26vDbUltH0rkw3oXoR3C-78" target="26vDbUltH0rkw3oXoR3C-83">
          <mxGeometry width="50" height="50" relative="1" as="geometry">
            <mxPoint x="340" y="6920" as="sourcePoint" />
            <mxPoint x="390" y="6870" as="targetPoint" />
          </mxGeometry>
        </mxCell>
        <mxCell id="26vDbUltH0rkw3oXoR3C-87" value="genera reportes" style="ellipse;whiteSpace=wrap;html=1;" vertex="1" parent="1">
          <mxGeometry x="414" y="6710" width="120" height="80" as="geometry" />
        </mxCell>
        <mxCell id="26vDbUltH0rkw3oXoR3C-88" value="" style="endArrow=none;html=1;rounded=0;entryX=0.321;entryY=0.959;entryDx=0;entryDy=0;entryPerimeter=0;exitX=0.25;exitY=0.1;exitDx=0;exitDy=0;exitPerimeter=0;" edge="1" parent="1" source="26vDbUltH0rkw3oXoR3C-83" target="26vDbUltH0rkw3oXoR3C-87">
          <mxGeometry width="50" height="50" relative="1" as="geometry">
            <mxPoint x="340" y="6920" as="sourcePoint" />
            <mxPoint x="390" y="6870" as="targetPoint" />
          </mxGeometry>
        </mxCell>
        <mxCell id="26vDbUltH0rkw3oXoR3C-89" value="13." style="text;html=1;align=center;verticalAlign=middle;whiteSpace=wrap;rounded=0;" vertex="1" parent="1">
          <mxGeometry x="60" y="7070" width="60" height="30" as="geometry" />
        </mxCell>
      </root>
    </mxGraphModel>
  </diagram>
</mxfile>
